<?xml version="1.0" encoding="UTF-8"?>
<svg id="Camada_1" data-name="Camada 1" xmlns="http://www.w3.org/2000/svg" viewBox="0 0 141.77 160.11">
  <defs>
    <style>
      .cls-1 {
        fill: #273372;
      }

      .cls-2 {
        fill: #fbea1e;
      }
    </style>
  </defs>
  <path class="cls-2" d="M101.92,99.17c-5.53,6.32-13.74,10.22-22.86,9.92-15.5-.52-27.99-13.4-28.06-28.91-.07-16.1,12.97-29.18,29.05-29.18,8.72,0,16.54,3.85,21.87,9.94l11.19-11.19c1.65-1.65,1.62-4.36-.1-5.93-8.7-7.91-20.25-12.74-32.93-12.75-26.45,0-48.36,21.36-48.98,47.8-.65,27.59,21.52,50.16,48.97,50.16,12.56,0,24.02-4.73,32.69-12.51,1.87-1.68,1.96-4.57.19-6.34l-11.01-11.01Z"/>
  <path class="cls-1" d="M80.5,69.42l7.3,19.58c.58,1.57,2.08,2.6,3.75,2.6h28.52v31.57c-10.65,9.89-24.96,15.88-40.68,15.71-31.75-.35-57.71-26.24-58.15-57.99-.45-32.87,26.05-59.65,58.82-59.65,15.09,0,28.86,5.69,39.27,15.03,1.81,1.62,4.55,1.59,6.27-.13l11.87-11.87C123.02,9.41,102.86.13,80.53,0,36.54-.25.31,35.49,0,79.48c-.31,44.48,35.65,80.63,80.05,80.63,22.52,0,42.86-9.3,57.41-24.27l4.31-4.43v-61.99h-61.27Z"/>
</svg>